<svg viewBox="0 0 508.675 508.675" fill="currentColor" xmlns="http://www.w3.org/2000/svg">
  <path d="m476.33 166.83c-15.447-21.298-45.169-49.85-60.004-62.549-82.334-66.862-174.068-69.959-269.878-25.452-51.92 8.307-88.371 34.517-108.41 77.952-44.501 51.517-53.483 104.823-7.967 157.266 22.655 40.711 60.4 47.48 103.857 28.254 17.786 32.721 50.421 50.922 106.622 38.699 14.118 17.883 39.704 20.286 55.381 20.498l47.589 52.79c3.034 3.366 7.353 5.287 11.884 5.287h33.519c10.321 0 17.968-9.654 15.562-19.721l-4.344-18.167c80.224-16.865 123.049-88.791 87.503-130.539 32.828-39.658 25.838-87.707-11.314-124.318zm-22.622 113.467c-8.05 7.153-6.885 20.129 2.419 25.692 34.233 20.465-8.188 79.883-77.139 86.609-9.666.943-16.261 10.216-14.008 19.646l3.665 15.33h-6.124l-47.605-52.808c-3.036-3.368-7.355-5.287-11.884-5.287-12.829 0-35.21.116-39.304-12.041-2.707-8.044-11.224-12.568-19.408-10.322-33.556 9.232-65.278 10.857-82.042-19.625 25.313-16.866 36.12-42.278 27.032-65.934-3.169-8.249-12.423-12.37-20.674-9.198-8.249 3.169-12.367 12.425-9.198 20.673 5.315 13.837-11.465 26.171-21.898 31.889-2.307 1.264-37.199 21.412-56.815 14.354-9.099-3.274-20.953-19.389-25.49-25.066-21.025-23.7-29.532-48.311-18.004-77.55 11.059 27.946 36.149 44.674 65.11 44.674 8.836 0 16-7.163 16-16s-7.164-16-16-16c-31.114 0-45.076-32.794-35.846-57.815 15.486-34.623 43.573-54.653 85.817-61.209 15.109.379 19.057 7.957 24.898 16.334 5.023 7.215 14.987 9.062 22.273 3.989 7.252-5.049 9.038-15.021 3.989-22.272-2.65-3.805-5.635-8.637-10.697-13.765 38.551-13.147 74.861-16.7 109.156-10.596-21.549 21.817-30.656 51.397-26.483 87.187.95 8.148 7.864 14.148 15.873 14.148 9.61 0 17.019-8.365 15.912-17.855-3.922-33.628 6.371-56.872 32.304-72.602 17.54 7.123 34.528 17.017 51.001 29.677-1.914 10.064-7.123 16.848-16.313 21.508-7.881 3.996-11.03 13.625-7.034 21.506 4.016 7.921 13.662 11.013 21.506 7.035 12.635-6.407 21.965-15.696 27.75-27.443 12.01 11.774 23.737 25.123 35.196 40.059 3.132 4.084 25.591 22.364 24.998 49.8-.331 15.273-8.262 30.237-22.933 43.278z"/>
  <path d="m358.633 278.057c12.369-33.343 7.406-70.82-23.468-87.202-7.808-4.143-17.492-1.171-21.633 6.635-4.142 7.806-1.171 17.491 6.635 21.633 15.175 8.052 14.542 29.122 9.177 45.7-34.94-10.244-65.919-.665-79.923 25.198-4.208 7.771-1.319 17.48 6.452 21.688 7.771 4.204 17.48 1.319 21.688-6.452 17.291-31.941 93.227 3.629 87.619 35.145-1.74 9.772 5.763 18.807 15.771 18.807 7.608 0 14.354-5.447 15.734-13.199 4.889-27.472-13.261-52.298-38.052-67.953z"/>
  <path d="m265.007 229.091c8.045-3.654 11.605-13.139 7.952-21.184-3.653-8.046-13.137-11.607-21.184-7.953-6.697 3.042-14.871-3.167-20.678-11.741 8.104-11.337 10.648-24.621 6.496-37.716-2.671-8.424-11.663-13.084-20.088-10.416-8.423 2.672-13.086 11.665-10.415 20.088 3.194 10.072-12.72 18.436-14.544 19.356-13.853 6.987-28.452 6.347-32.25 1.107-5.186-7.155-15.19-8.749-22.345-3.565-7.155 5.187-8.75 15.19-3.564 22.345 15.659 21.604 47.856 20.83 71.84 9.04 14.541 19.862 36.936 30.556 58.78 20.639z"/>
  <path d="m429.604 218.124-25.318 4.926c-8.674 1.688-14.338 10.087-12.649 18.761 1.692 8.7 10.115 14.334 18.761 12.649l25.318-4.926c8.674-1.688 14.338-10.087 12.649-18.761-1.688-8.674-10.091-14.34-18.761-12.649z"/>
</svg> 